#N canvas 740 477 600 303 10;
#N canvas 446 23 616 650 mel1 0;
#X obj 27 573 makenote 64 500;
#X obj 27 601 noteout 1;
#X obj 70 484 r velocity;
#X floatatom 83 507 5 0 0 0 - - -;
#X obj 27 102 counter;
#X floatatom 27 126 5 0 0 0 - - -;
#X floatatom 27 186 5 0 0 0 - - -;
#X obj 27 216 hradio 15 1 0 16 empty empty empty 0 -8 0 10 -262144
-1 -1 3;
#X obj 87 84 loadbang;
#X obj 27 149 % 16;
#X obj 26 256 sel 0 1 2 3 4 5 6 7 8 9 10 11 12 13 14 15;
#X obj 27 40 inlet;
#X obj 27 78 metro 250;
#X obj 248 439 outlet;
#X msg 22 318 80;
#X msg 60 317 80;
#X msg 104 317 80;
#X msg 145 317 82;
#X msg 187 316 85;
#X msg 222 316 0;
#X msg 263 316 63;
#X connect 0 0 1 0;
#X connect 0 1 1 1;
#X connect 2 0 0 1;
#X connect 2 0 3 0;
#X connect 4 0 5 0;
#X connect 5 0 9 0;
#X connect 6 0 7 0;
#X connect 7 0 10 0;
#X connect 7 0 13 0;
#X connect 8 0 4 0;
#X connect 9 0 6 0;
#X connect 10 0 14 0;
#X connect 10 1 15 0;
#X connect 10 2 16 0;
#X connect 10 3 17 0;
#X connect 10 4 18 0;
#X connect 10 5 19 0;
#X connect 10 6 20 0;
#X connect 11 0 12 0;
#X connect 12 0 4 0;
#X connect 14 0 0 0;
#X connect 15 0 0 0;
#X connect 16 0 0 0;
#X connect 17 0 0 0;
#X connect 18 0 0 0;
#X connect 19 0 0 0;
#X connect 20 0 0 0;
#X restore 153 137 pd mel1;
#X obj 153 113 tgl 15 0 empty empty empty 17 7 0 10 -262144 -1 -1 0
1;
#N canvas 584 55 696 670 mel2 0;
#X obj 36 355 makenote 64 500;
#X obj 36 383 noteout 1;
#X obj 185 338 r velocity;
#X floatatom 198 361 5 0 0 0 - - -;
#X obj 37 112 counter;
#X floatatom 37 136 5 0 0 0 - - -;
#X floatatom 37 196 5 0 0 0 - - -;
#X obj 37 226 hradio 15 1 0 16 empty empty empty 0 -8 0 10 -262144
-1 -1 10;
#X obj 97 94 loadbang;
#X obj 37 159 % 16;
#X obj 36 251 sel 0 1 2 3 4 5 6 7 8 9 10 11 12 13 14 15;
#X obj 37 50 inlet;
#X obj 37 88 metro 250;
#X obj 406 91 outlet;
#X msg 37 289 80;
#X msg 69 289 80;
#X msg 100 288 80;
#X msg 137 287 80;
#X msg 170 288 82;
#X msg 206 289 85;
#X msg 243 291 0;
#X msg 281 290 63;
#X connect 0 0 1 0;
#X connect 0 1 1 1;
#X connect 2 0 0 1;
#X connect 2 0 3 0;
#X connect 4 0 5 0;
#X connect 5 0 9 0;
#X connect 6 0 7 0;
#X connect 7 0 10 0;
#X connect 8 0 4 0;
#X connect 9 0 6 0;
#X connect 10 0 14 0;
#X connect 10 1 15 0;
#X connect 10 2 16 0;
#X connect 10 3 17 0;
#X connect 10 4 18 0;
#X connect 10 5 19 0;
#X connect 10 6 20 0;
#X connect 10 7 21 0;
#X connect 11 0 12 0;
#X connect 12 0 4 0;
#X connect 14 0 0 0;
#X connect 15 0 0 0;
#X connect 16 0 0 0;
#X connect 17 0 0 0;
#X connect 18 0 0 0;
#X connect 19 0 0 0;
#X connect 20 0 0 0;
#X connect 21 0 0 0;
#X restore 217 138 pd mel2;
#X obj 217 114 tgl 15 0 empty empty empty 17 7 0 10 -262144 -1 -1 0
1;
#X obj 280 106 tgl 15 0 empty empty empty 17 7 0 10 -262144 -1 -1 0
1;
#N canvas 440 22 792 643 mel3 0;
#X obj 46 485 makenote 64 500;
#X obj 46 513 noteout 1;
#X obj 212 469 r velocity;
#X floatatom 225 492 5 0 0 0 - - -;
#X obj 47 122 counter;
#X floatatom 47 146 5 0 0 0 - - -;
#X floatatom 47 206 5 0 0 0 - - -;
#X obj 45 236 hradio 15 1 0 16 empty empty empty 0 -8 0 10 -262144
-1 -1 1;
#X obj 107 104 loadbang;
#X obj 47 169 % 16;
#X obj 46 261 sel 0 1 2 3 4 5 6 7 8 9 10 11 12 13 14 15;
#X obj 47 60 inlet;
#X obj 47 98 metro 250;
#X obj 416 101 outlet;
#X msg 48 317 80;
#X msg 83 316 80;
#X msg 121 316 0;
#X msg 157 318 82;
#X msg 189 317 85;
#X msg 221 318 0;
#X msg 255 318 63;
#X connect 0 0 1 0;
#X connect 0 1 1 1;
#X connect 2 0 0 1;
#X connect 2 0 3 0;
#X connect 4 0 5 0;
#X connect 5 0 9 0;
#X connect 6 0 7 0;
#X connect 7 0 10 0;
#X connect 8 0 4 0;
#X connect 9 0 6 0;
#X connect 10 0 14 0;
#X connect 10 1 15 0;
#X connect 10 2 16 0;
#X connect 10 3 17 0;
#X connect 10 4 18 0;
#X connect 10 5 19 0;
#X connect 10 6 20 0;
#X connect 11 0 12 0;
#X connect 12 0 4 0;
#X connect 14 0 0 0;
#X connect 15 0 0 0;
#X connect 16 0 0 0;
#X connect 17 0 0 0;
#X connect 18 0 0 0;
#X connect 19 0 0 0;
#X connect 20 0 0 0;
#X restore 280 139 pd mel3;
#N canvas 431 56 816 524 mel4 0;
#X obj 59 494 makenote 64 500;
#X obj 59 522 noteout 1;
#X obj 274 477 r velocity;
#X floatatom 287 500 5 0 0 0 - - -;
#X obj 57 132 counter;
#X floatatom 57 156 5 0 0 0 - - -;
#X floatatom 57 216 5 0 0 0 - - -;
#X obj 55 246 hradio 15 1 0 16 empty empty empty 0 -8 0 10 -262144
-1 -1 1;
#X obj 117 114 loadbang;
#X obj 57 179 % 16;
#X obj 56 271 sel 0 1 2 3 4 5 6 7 8 9 10 11 12 13 14 15;
#X obj 57 70 inlet;
#X obj 57 108 metro 250;
#X obj 426 111 outlet;
#X msg 59 342 80;
#X msg 94 341 80;
#X msg 131 342 80;
#X msg 261 344 80;
#X msg 165 343 82;
#X msg 200 343 82;
#X msg 230 343 0;
#X msg 293 344 82;
#X msg 324 343 82;
#X connect 0 0 1 0;
#X connect 0 1 1 1;
#X connect 2 0 0 1;
#X connect 2 0 3 0;
#X connect 4 0 5 0;
#X connect 5 0 9 0;
#X connect 6 0 7 0;
#X connect 7 0 10 0;
#X connect 8 0 4 0;
#X connect 9 0 6 0;
#X connect 10 0 14 0;
#X connect 10 1 15 0;
#X connect 10 2 16 0;
#X connect 10 3 18 0;
#X connect 10 4 19 0;
#X connect 10 5 20 0;
#X connect 10 6 17 0;
#X connect 10 7 21 0;
#X connect 10 8 22 0;
#X connect 11 0 12 0;
#X connect 12 0 4 0;
#X connect 14 0 0 0;
#X connect 15 0 0 0;
#X connect 16 0 0 0;
#X connect 17 0 0 0;
#X connect 18 0 0 0;
#X connect 19 0 0 0;
#X connect 20 0 0 0;
#X connect 21 0 0 0;
#X connect 22 0 0 0;
#X restore 345 139 pd mel4;
#X obj 346 102 tgl 15 0 empty empty empty 17 7 0 10 -262144 -1 -1 0
1;
#X obj 442 117 tgl 15 0 empty empty empty 17 7 0 10 -262144 -1 -1 0
1;
#N canvas 446 23 616 650 mel1rev 0;
#X obj 27 573 makenote 64 500;
#X obj 27 601 noteout 1;
#X obj 70 484 r velocity;
#X floatatom 83 507 5 0 0 0 - - -;
#X obj 27 102 counter;
#X floatatom 27 126 5 0 0 0 - - -;
#X floatatom 27 186 5 0 0 0 - - -;
#X obj 27 216 hradio 15 1 0 16 empty empty empty 0 -8 0 10 -262144
-1 -1 9;
#X obj 87 84 loadbang;
#X obj 27 149 % 16;
#X obj 26 256 sel 0 1 2 3 4 5 6 7 8 9 10 11 12 13 14 15;
#X obj 27 40 inlet;
#X obj 27 78 metro 250;
#X obj 248 439 outlet;
#X msg 22 318 85;
#X msg 60 317 82;
#X msg 104 317 80;
#X msg 145 317 80;
#X msg 187 316 80;
#X msg 222 316 0;
#X msg 263 316 63;
#X connect 0 0 1 0;
#X connect 0 1 1 1;
#X connect 2 0 0 1;
#X connect 2 0 3 0;
#X connect 4 0 5 0;
#X connect 5 0 9 0;
#X connect 6 0 7 0;
#X connect 7 0 10 0;
#X connect 7 0 13 0;
#X connect 8 0 4 0;
#X connect 9 0 6 0;
#X connect 10 0 14 0;
#X connect 10 1 15 0;
#X connect 10 2 16 0;
#X connect 10 3 17 0;
#X connect 10 4 18 0;
#X connect 10 5 19 0;
#X connect 10 6 20 0;
#X connect 11 0 12 0;
#X connect 12 0 4 0;
#X connect 14 0 0 0;
#X connect 15 0 0 0;
#X connect 16 0 0 0;
#X connect 17 0 0 0;
#X connect 18 0 0 0;
#X connect 19 0 0 0;
#X connect 20 0 0 0;
#X restore 442 141 pd mel1rev;
#X connect 1 0 0 0;
#X connect 3 0 2 0;
#X connect 4 0 5 0;
#X connect 7 0 6 0;
#X connect 8 0 9 0;
